<svg width="100pt" height="100pt" viewBox="0 0 100 100" xmlns="http://www.w3.org/2000/svg"><path d="M97.102 20.199C95.302 13.301 89.302 7.898 82.5 7c-6.898-.898-16 2.602-19.699 12.5-8.5-2.5-17.102-2.398-25.602 0-3.5-9.102-11.801-13.5-19.598-12.602-6.602.8-12.602 6-14.5 12.703-2.102 7.297 0 15.797 8.398 21.199v.2c-.101.198-.199.5-.3.698-2.102 5.102-3.301 10.398-3.301 16C7.999 63 8.999 68.198 11.8 73c4.4 7.601 10.898 12.8 18.898 16.3 9.7 4.2 19.801 4.899 30.102 2.801C68.7 90.402 75.698 87 81.601 81.5c3.899-3.699 6.899-7.898 8.602-13 2.897-8.899 2.199-17.603-1.103-26.2-.2-.5-.398-.898-.601-1.398 7.898-5.203 10.398-13.504 8.601-20.703zM86.399 60.801c-.5 5.602-2.8 10.398-6.5 14.602-5.398 6-12.199 9.5-20.102 11.301-1.2.3-2.398.5-3.602.602-2.101.199-4.101.3-5.3.398-10-.102-18.398-2.398-25.801-7.898-4.602-3.399-8.399-7.602-10.398-13.2-1.399-3.8-1.602-7.699-1.301-11.698.3-5.301 1.8-10.301 4.5-14.898.199-.301.3-.602.5-.801 1.101-1.102 1.101-2.301.3-3.602-.5-.8-.699-1.601-1.101-2.5-.5-1.3-.3-2.5.8-3.3.9-.7 2.102-.7 3.2.199.898.601 1.8 1.3 2.602 2 .398.3.601.3 1 0 7.3-6.5 15.898-9.102 25.5-8.899 7.3.102 14.102 2 20.199 6.102 1.199.8 2.3 1.699 3.3 2.699.5.398.801.398 1.301 0 1-.8 2-1.602 3-2.2 1.602-1 3.5 0 3.801 1.802.102.601-.102 1.199-.3 1.699-.5 1.199-1 2.398-1.602 3.601-.2.5-.2.801.101 1.301 4.805 6.992 6.606 14.59 5.902 22.691z"/><path d="M43.602 50.199c-.102-.5-.102-1.102-.2-1.602-.8-3.8-4.6-6.398-8.398-5.898-2 .3-3.601 1.3-4.8 2.898-2.301 2.899-4.5 5.801-6.602 8.801-1.5 2.102-2.2 4.602-1.898 7.301.699 5 6.398 9.602 12.3 6.2.301-.2.7-.602.801-1 .5-1.802 1.399-3.4 2.399-5 1.699-2.4 3.3-4.802 4.898-7.302.899-1.199 1.399-2.699 1.5-4.398zm-9.703 6c-1.3 0-2.399-1.2-2.399-2.398 0-1.301 1.102-2.399 2.399-2.301 1.3 0 2.3 1.101 2.3 2.398.102 1.203-1 2.301-2.3 2.301zm35.402-11.097c-2.398-2.602-5.8-3.2-8.7-1.602-3.698 1.899-5.6 6.801-3 11 1.4 2.2 3 4.399 4.5 6.602 1.4 2 2.7 3.898 3.2 6.3 0 .2.3.5.5.602 1.3.399 2.5 1.102 3.8 1.102 4.602.3 8.602-3.602 8.7-8.398.102-1.7-.5-3.801-1.602-5.5-2-3.707-4.5-7.106-7.398-10.105zm-3.2 11.098c-1.3 0-2.398-1.102-2.398-2.398 0-1.301 1.102-2.399 2.399-2.301 1.3 0 2.3 1.101 2.3 2.398.098 1.301-1.003 2.402-2.3 2.301zM43.898 66.602c.8.7 1.7 1.102 2.602 1.602.5.3 1.101.398 1.699.601.101 1.301-.2 2.301-1.5 2.899-1.102.5-1.301 1.601-.801 2.5.5.8 1.7 1 2.602.398.5-.3 1-.7 1.5-1.102.3.301.699.801 1.3 1.2.7.398 1.399.398 2.102-.102.602-.5.8-1.102.5-1.8-.2-.4-.602-.9-1-1.102-1.102-.7-1.398-1.602-1.3-2.7 1.1-.5 2.198-.8 3.198-1.398 1-.5 2.102-1.2 2-2.602-.101-1.398-1.199-1.898-2.3-2.398-1.899-.898-3.801-1.102-5.801-.8-1.7.198-3.301.698-4.7 1.8-1.101.902-1.101 2.102-.1 3.004z"/><path d="M58.898 74.102c-.5.3-.898.7-1.3 1.102-4.102 3.8-9.7 4.199-14.2.898-.8-.602-1.398-1.2-2.199-1.8-.8-.7-1.8-.602-2.398.1-.602.602-.602 1.5.101 2.302 3 3.101 6.5 5 11.5 5 3.899 0 7.5-1.899 10.602-5.102.7-.7.7-1.5.102-2.102-.504-.699-1.504-.898-2.207-.398z"/></svg>