<svg data-v-fde0c5aa="" xmlns="http://www.w3.org/2000/svg" viewBox="0 0 300 300" class="iconLeft"><!----><defs data-v-fde0c5aa=""><!----></defs><rect data-v-fde0c5aa="" fill="#EBFBFA" x="0" y="0" width="300px" height="300px" class="logo-background-square"></rect><defs data-v-fde0c5aa=""><!----></defs><g data-v-fde0c5aa="" id="abcf21c8-2bfb-4be5-b4fa-01601ecdd8e1" fill="#08403F" transform="matrix(1.7855343395281214,0,0,1.7855343395281214,92.82042958970096,135.10864376158912)"><path d="M5.39 5.83L5.39 5.83Q5.63 5.60 5.63 5.49Q5.63 5.39 5.53 5.31Q5.43 5.24 5.27 5.18Q5.12 5.13 4.93 5.09Q4.74 5.05 4.57 5.03L4.57 5.03Q4.21 4.99 3.96 4.99Q3.71 4.99 3.39 5.04Q3.06 5.09 2.79 5.22L2.79 5.22Q2.17 5.54 2.17 6.16Q2.17 6.78 2.40 7.15Q2.63 7.53 2.99 7.77Q3.36 8.02 3.84 8.18Q4.31 8.35 4.81 8.49Q5.31 8.63 5.79 8.80Q6.26 8.96 6.63 9.21L6.63 9.21Q7.46 9.78 7.46 10.79L7.46 10.79Q7.46 11.79 6.62 12.63L6.62 12.63Q5.90 13.36 4.71 13.82L4.71 13.82Q3.64 14.25 2.65 14.25L2.65 14.25Q2.04 14.25 1.55 14.10Q1.05 13.96 0.85 13.85L0.85 13.85Q0.37 13.61 0.37 13.28L0.37 13.28Q0.37 12.76 1.93 11.90L1.93 11.90Q1.73 12.13 1.73 12.34Q1.73 12.54 1.86 12.69Q2.00 12.84 2.21 12.94Q2.42 13.05 2.68 13.12Q2.95 13.19 3.21 13.23L3.21 13.23Q3.68 13.30 4.07 13.30Q4.46 13.30 4.84 13.23Q5.22 13.16 5.51 12.98L5.51 12.98Q6.17 12.58 6.17 11.73L6.17 11.73Q6.17 10.40 4.49 9.76L4.49 9.76Q4.01 9.58 3.51 9.42Q3.01 9.26 2.53 9.09Q2.05 8.92 1.68 8.68L1.68 8.68Q0.85 8.13 0.85 7.24L0.85 7.24Q0.85 6.49 1.69 5.70L1.69 5.70Q2.41 5.02 3.51 4.53L3.51 4.53Q4.56 4.05 5.30 4.05L5.30 4.05Q5.96 4.05 6.36 4.18Q6.77 4.30 6.87 4.36Q6.98 4.43 6.98 4.52Q6.98 4.60 6.88 4.72Q6.79 4.84 6.64 4.98Q6.49 5.11 6.31 5.25Q6.13 5.39 5.95 5.50L5.95 5.50Q5.54 5.77 5.39 5.83ZM14.21 8.18Q14.56 8.57 14.76 9.08Q14.95 9.59 14.95 10.10Q14.95 10.62 14.80 11.10Q14.65 11.59 14.38 12.04Q14.11 12.50 13.74 12.89Q13.38 13.28 12.94 13.58L12.94 13.58Q12.01 14.20 11.06 14.20L11.06 14.20Q9.95 14.20 9.17 13.33L9.17 13.33Q8.41 12.50 8.41 11.38L8.41 11.38Q8.41 10.42 8.99 9.45L8.99 9.45Q9.86 7.99 11.35 7.48L11.35 7.48Q11.83 7.31 12.37 7.31Q12.90 7.31 13.38 7.54Q13.86 7.78 14.21 8.18ZM10.98 8.22L10.98 8.22Q10.29 8.22 9.98 8.89L9.98 8.89Q9.73 9.41 9.73 10.06Q9.73 10.72 9.91 11.28Q10.08 11.85 10.42 12.29L10.42 12.29Q11.18 13.29 12.38 13.29L12.38 13.29Q13.08 13.29 13.39 12.59L13.39 12.59Q13.62 12.07 13.62 11.40L13.62 11.40Q13.62 10.08 12.88 9.15Q12.15 8.22 10.98 8.22ZM20.34 8.79L20.34 8.79Q20.48 8.65 20.48 8.59Q20.48 8.52 20.39 8.46Q20.30 8.39 20.15 8.34Q20.00 8.29 19.82 8.25Q19.65 8.20 19.48 8.18L19.48 8.18Q19.13 8.11 18.81 8.11Q18.49 8.11 18.16 8.30Q17.83 8.50 17.63 8.82L17.63 8.82Q17.28 9.39 17.28 10.21Q17.28 11.03 17.46 11.56Q17.64 12.09 17.98 12.47L17.98 12.47Q18.70 13.26 20.01 13.26L20.01 13.26Q20.84 13.26 21.57 12.85L21.57 12.85Q20.71 13.78 19.39 14.10L19.39 14.10Q18.98 14.19 18.47 14.19Q17.96 14.19 17.47 13.98Q16.98 13.77 16.64 13.39L16.64 13.39Q15.93 12.62 15.93 11.39L15.93 11.39Q15.93 10.39 16.63 9.38L16.63 9.38Q17.64 7.90 19.31 7.37L19.31 7.37Q19.83 7.20 20.25 7.20L20.25 7.20Q21.25 7.20 21.75 7.57L21.75 7.57Q21.80 7.61 21.80 7.68L21.80 7.68Q21.80 7.92 20.80 8.57L20.80 8.57Q20.45 8.79 20.34 8.79ZM23.13 3.41L24.45 2.48L24.49 3.26L24.49 3.62Q24.49 3.94 24.41 4.02Q24.33 4.09 24.23 4.16L24.23 4.16Q23.85 4.43 23.13 4.89L23.13 4.89Q23.16 4.21 23.16 4.19Q23.16 4.16 23.13 3.41L23.13 3.41ZM25.88 13.24L25.88 13.24Q25.68 13.41 25.48 13.58Q25.29 13.75 25.07 13.89L25.07 13.89Q24.58 14.21 24.13 14.21L24.13 14.21Q23.71 14.21 23.54 14.08L23.54 14.08Q23.19 13.82 23.19 13.13L23.19 13.13L23.19 9.88Q23.19 9.15 22.92 8.93L22.92 8.93Q22.80 8.83 22.65 8.83Q22.51 8.83 22.41 8.84Q22.31 8.86 22.21 8.88Q22.11 8.90 22.00 8.92L22.00 8.92Q22.34 8.65 22.64 8.44Q22.93 8.23 23.15 8.09Q23.36 7.94 23.73 7.68Q24.11 7.42 24.51 7.21L24.51 7.21L24.51 12.03Q24.51 12.73 24.60 12.91L24.60 12.91Q24.79 13.29 25.45 13.29L25.45 13.29Q25.63 13.29 25.88 13.24ZM31.01 9.28L31.01 12.06L30.99 12.54Q30.99 13.07 31.29 13.21L31.29 13.21Q31.41 13.27 31.56 13.27L31.56 13.27Q31.80 13.27 32.05 13.16L32.05 13.16Q31.79 13.27 31.60 13.45Q31.41 13.62 31.21 13.79L31.21 13.79Q30.72 14.21 30.22 14.21L30.22 14.21Q29.72 14.21 29.69 13.63L29.69 13.63Q29.67 13.48 29.67 13.33L29.67 13.33Q28.44 14.18 27.42 14.18L27.42 14.18Q26.55 14.18 26.22 13.66L26.22 13.66Q26.09 13.47 26.09 13.13Q26.09 12.80 26.30 12.46Q26.50 12.12 26.82 11.84L26.82 11.84Q27.38 11.32 28.17 10.99L28.17 10.99Q28.76 10.73 29.68 10.70L29.68 10.70L29.68 10.40Q29.68 9.31 29.48 8.93Q29.29 8.54 28.97 8.36Q28.66 8.18 28.23 8.18L28.23 8.18Q27.51 8.18 26.97 8.46L26.97 8.46Q27.72 7.84 28.07 7.64L28.07 7.64Q28.79 7.24 29.37 7.24Q29.96 7.24 30.25 7.41Q30.54 7.58 30.71 7.86L30.71 7.86Q31.01 8.35 31.01 9.28L31.01 9.28ZM27.79 13.04Q27.96 13.16 28.18 13.21Q28.40 13.27 28.83 13.27Q29.26 13.27 29.68 13.06L29.68 13.06L29.68 11.63L28.57 11.63Q27.98 11.63 27.54 11.71L27.54 11.71Q27.45 12.00 27.45 12.27Q27.45 12.54 27.54 12.73Q27.63 12.92 27.79 13.04ZM36.02 13.23L36.02 13.23Q35.79 13.41 35.59 13.59Q35.38 13.77 35.16 13.90L35.16 13.90Q34.68 14.22 34.16 14.22L34.16 14.22Q33.41 14.22 33.34 13.18L33.34 13.18Q33.33 12.90 33.33 12.63L33.33 12.63L33.33 5.32Q33.33 4.38 32.90 4.10L32.90 4.10Q32.72 3.98 32.56 3.98L32.56 3.98Q32.34 3.98 32.27 3.99Q32.19 4.00 32.14 4.01L32.14 4.01Q33.12 3.32 33.38 3.19L33.38 3.19Q33.72 3.00 34.09 2.82Q34.45 2.64 34.65 2.54L34.65 2.54L34.65 11.97Q34.65 12.25 34.65 12.49Q34.66 12.73 34.73 12.91L34.73 12.91Q34.90 13.28 35.59 13.28L35.59 13.28Q35.81 13.28 36.02 13.23ZM48.99 11.74L48.99 11.74Q49.14 9.92 49.14 8.29Q49.14 6.66 49.01 5.17L49.01 5.17L47.80 5.17Q47.88 5.11 48.07 4.96Q48.25 4.81 48.46 4.65L48.46 4.65Q48.98 4.25 49.12 4.25L49.12 4.25L51.70 4.25Q51.55 4.29 51.24 4.57Q50.93 4.85 50.75 4.99Q50.58 5.13 50.41 5.17L50.41 5.17Q50.42 5.33 50.42 5.50Q50.42 5.66 50.42 5.82L50.42 5.82L50.40 7.35Q50.40 9.86 49.86 12.67L49.86 12.67Q49.85 12.74 49.83 12.83Q49.82 12.93 49.80 13.03L49.80 13.03Q49.77 13.27 49.72 13.37Q49.67 13.48 49.53 13.61Q49.40 13.75 49.23 13.88L49.23 13.88Q49.04 14.04 48.65 14.31L48.65 14.31Q48.57 13.80 48.06 13.17L48.06 13.17Q45.62 10.12 42.56 6.72L42.56 6.72L42.56 10.09Q42.56 12.09 42.25 12.68L42.25 12.68Q42.08 12.99 41.94 13.15L41.94 13.15L44.15 13.15Q44.06 13.21 43.88 13.37Q43.69 13.52 43.48 13.69L43.48 13.69Q42.96 14.08 42.82 14.08L42.82 14.08L40.57 14.08Q41.16 13.23 41.24 11.85L41.24 11.85Q41.27 11.46 41.27 9.68Q41.27 7.90 41.12 5.17L41.12 5.17L39.57 5.17Q39.65 5.11 39.84 4.96Q40.02 4.81 40.23 4.65L40.23 4.65Q40.75 4.25 40.89 4.25L40.89 4.25L43.47 4.25Q43.29 4.31 43.11 4.48Q42.94 4.65 42.88 4.70L42.88 4.70Q44.71 6.64 46.00 8.17Q47.28 9.70 47.86 10.37Q48.43 11.03 48.99 11.74ZM57.22 12.82L57.22 12.82Q56.28 13.86 54.89 14.12L54.89 14.12Q54.57 14.18 54.10 14.18Q53.63 14.18 53.21 13.91Q52.79 13.65 52.53 13.23L52.53 13.23Q52.02 12.43 52.02 11.27L52.02 11.27Q52.02 10.50 52.61 9.57L52.61 9.57Q53.18 8.65 54.01 8.04L54.01 8.04Q54.90 7.38 55.69 7.38L55.69 7.38Q56.10 7.38 56.38 7.68L56.38 7.68Q56.64 7.98 56.64 8.35Q56.64 8.73 56.48 9.05Q56.31 9.37 56.05 9.67Q55.79 9.97 55.45 10.24Q55.11 10.52 54.76 10.76L54.76 10.76Q54.26 11.10 53.50 11.53L53.50 11.53Q53.72 12.36 54.27 12.81Q54.82 13.25 55.70 13.25L55.70 13.25Q56.44 13.25 57.22 12.82ZM55.15 10.08L55.15 10.08Q55.34 9.78 55.34 9.50Q55.34 9.22 55.28 9.03Q55.21 8.83 55.10 8.68L55.10 8.68Q54.83 8.34 54.41 8.34L54.41 8.34Q53.37 8.34 53.37 10.46L53.37 10.46Q53.37 10.83 53.43 11.20L53.43 11.20Q54.63 10.87 55.15 10.08ZM58.70 8.16L57.81 8.16L58.70 7.46L58.70 6.49Q59.07 6.23 59.23 6.09Q59.38 5.95 59.49 5.89Q59.60 5.83 59.72 5.76L59.72 5.76Q60.01 5.59 60.03 5.56L60.03 5.56L60.03 7.23L62.22 7.23Q62.13 7.23 61.77 7.55L61.77 7.55Q61.08 8.16 60.89 8.16L60.89 8.16L60.03 8.16L60.03 11.82Q60.03 13.08 60.76 13.28L60.76 13.28Q60.98 13.33 61.17 13.33L61.17 13.33Q61.48 13.33 61.70 13.24Q61.92 13.15 62.06 13.07L62.06 13.07Q61.65 13.71 60.89 14.04L60.89 14.04Q60.50 14.21 60.06 14.21Q59.61 14.21 59.36 14.05Q59.12 13.90 58.97 13.64L58.97 13.64Q58.70 13.18 58.70 12.41L58.70 12.41L58.70 8.16ZM66.51 8.27L66.51 8.27Q66.56 8.24 66.67 8.15Q66.77 8.07 66.91 7.96Q67.04 7.86 67.18 7.75Q67.33 7.64 67.46 7.55L67.46 7.55Q67.75 7.33 67.82 7.33Q67.88 7.33 67.98 7.49Q68.07 7.64 68.16 7.83Q68.26 8.03 68.33 8.21Q68.40 8.39 68.61 8.92L68.61 8.92Q69.16 10.29 69.71 12.52L69.71 12.52Q70.51 11.06 70.69 10.45Q70.87 9.84 70.87 9.60Q70.87 9.36 70.84 9.16Q70.81 8.96 70.74 8.78L70.74 8.78Q70.56 8.35 70.22 8.35L70.22 8.35Q70.05 8.35 69.90 8.44L69.90 8.44Q70.08 8.35 70.27 8.18Q70.47 8.00 70.68 7.84L70.68 7.84Q71.19 7.43 71.44 7.43Q71.68 7.43 71.81 7.53Q71.95 7.62 72.04 7.77L72.04 7.77Q72.20 8.05 72.20 8.50Q72.20 8.96 72.02 9.55Q71.84 10.13 71.56 10.71L71.56 10.71Q71.22 11.42 70.73 12.20Q70.25 12.97 70.15 13.14Q70.05 13.30 69.98 13.40Q69.91 13.49 69.82 13.56Q69.73 13.63 69.60 13.72Q69.47 13.81 69.32 13.91Q69.17 14.01 69.03 14.11Q68.89 14.20 68.78 14.27Q68.67 14.35 68.61 14.38L68.61 14.38Q68.06 12.04 67.61 10.75L67.61 10.75Q67.33 11.46 66.98 12.16Q66.62 12.87 66.53 13.07Q66.45 13.28 66.38 13.38Q66.31 13.48 66.22 13.55Q66.13 13.62 66.00 13.71Q65.87 13.80 65.72 13.91Q65.56 14.01 65.42 14.11L65.42 14.11Q65.13 14.29 65.00 14.38L65.00 14.38Q64.96 14.18 64.88 13.81Q64.80 13.45 64.70 12.98Q64.59 12.52 64.45 11.99Q64.32 11.46 64.16 10.95Q63.99 10.43 63.81 9.96Q63.62 9.48 63.41 9.12L63.41 9.12Q62.96 8.33 62.51 8.33L62.51 8.33Q62.30 8.33 62.09 8.46L62.09 8.46Q62.72 7.81 63.44 7.50L63.44 7.50Q63.70 7.39 63.86 7.39L63.86 7.39Q64.10 7.39 64.27 7.53Q64.44 7.67 64.62 8.00Q64.80 8.33 64.98 8.76Q65.15 9.20 65.32 9.70Q65.48 10.19 65.62 10.66L65.62 10.66Q65.81 11.33 66.03 12.17L66.03 12.17Q66.16 11.87 66.31 11.51Q66.46 11.16 66.59 10.79L66.59 10.79Q66.89 9.92 66.89 9.30Q66.89 8.67 66.51 8.27ZM78.85 8.18Q79.19 8.57 79.39 9.08Q79.58 9.59 79.58 10.10Q79.58 10.62 79.43 11.10Q79.28 11.59 79.01 12.04Q78.74 12.50 78.38 12.89Q78.01 13.28 77.57 13.58L77.57 13.58Q76.64 14.20 75.69 14.20L75.69 14.20Q74.58 14.20 73.80 13.33L73.80 13.33Q73.04 12.50 73.04 11.38L73.04 11.38Q73.04 10.42 73.62 9.45L73.62 9.45Q74.49 7.99 75.99 7.48L75.99 7.48Q76.47 7.31 77 7.31Q77.53 7.31 78.02 7.54Q78.50 7.78 78.85 8.18ZM75.61 8.22L75.61 8.22Q74.93 8.22 74.61 8.89L74.61 8.89Q74.37 9.41 74.37 10.06Q74.37 10.72 74.54 11.28Q74.72 11.85 75.06 12.29L75.06 12.29Q75.82 13.29 77.01 13.29L77.01 13.29Q77.71 13.29 78.03 12.59L78.03 12.59Q78.25 12.07 78.25 11.40L78.25 11.40Q78.25 10.08 77.52 9.15Q76.78 8.22 75.61 8.22ZM86.71 7.44L86.71 7.44Q85.88 8.65 84.70 8.65L84.70 8.65Q84.51 8.65 84.21 8.50L84.21 8.50Q83.64 8.22 83.44 8.22Q83.23 8.22 83.11 8.35Q82.99 8.48 82.91 8.71L82.91 8.71Q82.72 9.21 82.72 10.02L82.72 10.02L82.72 12.64Q82.72 13.08 82.99 13.23L82.99 13.23Q83.08 13.30 83.23 13.30Q83.37 13.30 83.53 13.23L83.53 13.23Q83.39 13.35 83.26 13.52Q83.13 13.69 82.97 13.84L82.97 13.84Q82.58 14.22 82.04 14.22L82.04 14.22Q81.77 14.22 81.58 14.04Q81.39 13.87 81.39 13.62L81.39 13.62L81.39 9.68Q81.39 9.44 81.40 9.20Q81.40 8.96 81.35 8.76L81.35 8.76Q81.22 8.33 80.60 8.33L80.60 8.33Q80.31 8.33 80.01 8.44L80.01 8.44Q80.19 8.38 80.47 8.12L80.47 8.12Q81.02 7.63 81.23 7.55L81.23 7.55Q81.67 7.39 81.94 7.39Q82.21 7.39 82.36 7.47Q82.50 7.55 82.58 7.68L82.58 7.68Q82.72 7.91 82.72 8.38L82.72 8.38Q82.92 8.23 83.16 8.04Q83.39 7.85 83.64 7.68L83.64 7.68Q84.25 7.28 84.70 7.28L84.70 7.28Q84.97 7.28 85.26 7.43Q85.56 7.58 85.70 7.65Q85.85 7.72 85.97 7.72L85.97 7.72Q86.24 7.72 86.71 7.44ZM87.18 13.24L87.18 4.94Q87.18 3.92 86.58 3.92L86.58 3.92Q86.40 3.92 85.99 4.02L85.99 4.02Q86.27 3.81 86.58 3.57Q86.89 3.34 87.21 3.10L87.21 3.10Q87.91 2.62 88.51 2.30L88.51 2.30L88.50 8.58Q89.27 7.90 90.21 7.57L90.21 7.57Q90.52 7.46 90.76 7.46Q91 7.46 91.19 7.55Q91.38 7.63 91.51 7.77L91.51 7.77Q91.81 8.07 91.81 8.46Q91.81 8.84 91.62 9.15Q91.42 9.46 91.14 9.73L91.14 9.73Q90.75 10.13 89.97 10.63L89.97 10.63Q90.07 10.73 90.28 10.96Q90.49 11.20 90.75 11.48Q91.01 11.77 91.31 12.08Q91.61 12.39 91.88 12.64L91.88 12.64Q92.49 13.22 92.68 13.22L92.68 13.22Q93.16 13.22 93.63 12.95L93.63 12.95Q93.04 13.76 92.18 14.09L92.18 14.09Q91.90 14.20 91.68 14.20Q91.46 14.20 91.34 14.15Q91.21 14.10 91.10 14.03L91.10 14.03Q90.87 13.88 90.49 13.49L90.49 13.49Q89.69 12.69 88.50 11.41L88.50 11.41L88.50 12.11Q88.50 12.27 88.50 12.47Q88.50 12.67 88.54 12.86L88.54 12.86Q88.63 13.30 89.02 13.30L89.02 13.30Q89.16 13.30 89.32 13.23L89.32 13.23Q89.17 13.35 88.99 13.52Q88.80 13.69 88.59 13.85L88.59 13.85Q88.08 14.23 87.75 14.23L87.75 14.23Q87.18 14.23 87.18 13.24L87.18 13.24ZM89.47 8.39L89.47 8.39Q88.50 8.39 88.50 10.86L88.50 10.86L88.50 11.22Q89.76 10.72 90.28 9.97L90.28 9.97Q90.48 9.68 90.48 9.40Q90.48 9.13 90.40 8.95Q90.32 8.78 90.18 8.65L90.18 8.65Q89.88 8.39 89.47 8.39Z"></path></g><defs data-v-fde0c5aa=""><linearGradient data-v-fde0c5aa="" gradientTransform="rotate(25)" id="483c8b57-d981-4faf-b78a-b90d877cfb23" x1="0%" y1="0%" x2="100%" y2="0%"><stop data-v-fde0c5aa="" offset="0%" stop-color="#41E296" stop-opacity="1"></stop><stop data-v-fde0c5aa="" offset="100%" stop-color="#00C4EE" stop-opacity="1"></stop></linearGradient></defs><g data-v-fde0c5aa="" id="246ac2b3-3f06-4c64-8f97-d2f7c37b546d" stroke="none" fill="url(#483c8b57-d981-4faf-b78a-b90d877cfb23)" transform="matrix(0.46031087273941795,0,0,0.46031087273941795,37.22503540172177,126.98423247983409)"><path d="M39.363 52.143c-.99 4.212-2.863 7.882-7.456 6.802-4.042-.949-4.558-5.182-3.568-9.393.99-4.212 5.127-6.072 6.964-5.641 1.918.451 5.05 4.021 4.06 8.232zM58.462 52.143c.99 4.212 2.862 7.882 7.456 6.802 4.042-.949 4.558-5.182 3.568-9.393-.99-4.212-5.128-6.072-6.965-5.641-1.917.451-5.048 4.021-4.059 8.232zM55.821 59.422c-.109-.062-2.728-1.521-5.9-1.521-3.167 0-6.192 1.453-6.32 1.516a.182.182 0 00-.051.291 58.46 58.46 0 002.509 2.422c2.723 2.459 3.418 2.459 3.647 2.459s.925 0 3.648-2.459c1.324-1.197 2.497-2.41 2.509-2.422a.185.185 0 00.05-.153.183.183 0 00-.092-.133z"></path><path d="M91.468 21.021c-4.914-6.587-15.436-7.054-23.549-1.067a34.933 34.933 0 00-18.212-5.097 34.931 34.931 0 00-17.892 4.907c-8.075-5.784-18.421-5.259-23.283 1.257-4.935 6.613-2.349 16.889 5.777 22.952.229.171.459.334.691.494a35.166 35.166 0 00-.437 5.532c0 19.379 15.766 35.145 35.144 35.145s35.144-15.766 35.144-35.145c0-1.759-.132-3.488-.383-5.18a22.12 22.12 0 001.224-.847c8.124-6.063 10.711-16.338 5.776-22.951zM15.33 26.449c2.368-3.174 6.791-4.102 11.033-2.695a35.263 35.263 0 00-9.889 14.813c-3.074-3.788-3.682-8.717-1.144-12.118zm34.377 55.222c-17.464 0-31.672-14.207-31.672-31.672 0-17.463 14.208-31.671 31.672-31.671 17.463 0 31.672 14.208 31.672 31.671 0 17.465-14.209 31.672-31.672 31.672zm33.398-42.61a35.245 35.245 0 00-9.888-15.158c4.367-1.612 9.006-.731 11.452 2.547 2.65 3.55 1.871 8.766-1.564 12.611z"></path><path d="M59.517 64.759a.727.727 0 00-.815.633c-.002.008-.124.912-.709 1.781-.746 1.113-1.898 1.678-3.426 1.678-3.643 0-4.117-3.318-4.134-3.457-.002-.018-.008-.033-.011-.051-.006-.025-.01-.053-.018-.076-.008-.025-.018-.047-.027-.07-.009-.02-.016-.039-.026-.059a.676.676 0 00-.046-.072l-.031-.043a1.303 1.303 0 00-.062-.066l-.033-.031a.96.96 0 00-.219-.128l-.021-.008a.708.708 0 00-.129-.029l-.009-.002h-.003a.602.602 0 00-.12-.004h-.034c-.007.002-.015 0-.022.002-.024.002-.048.01-.072.016-.017.004-.034.006-.05.012a.553.553 0 00-.085.033c-.015.006-.031.012-.046.02a.825.825 0 00-.217.178c-.019.021-.034.045-.05.068a.615.615 0 00-.03.047c-.014.025-.024.053-.035.08-.007.016-.015.033-.021.051a.64.64 0 00-.02.084c-.004.016-.009.029-.011.047-.002.008-.124.912-.709 1.781-.746 1.113-1.898 1.678-3.426 1.678-3.644 0-4.117-3.318-4.134-3.457a.73.73 0 00-1.45.175c.198 1.641 1.621 4.742 5.585 4.742 2.566 0 4.066-1.299 4.859-2.662.794 1.363 2.293 2.662 4.86 2.662 3.964 0 5.387-3.102 5.585-4.742a.735.735 0 00-.638-.811z"></path></g><!----></svg>