<?xml version="1.0"?>
<svg width="596" height="90" xmlns="http://www.w3.org/2000/svg" xmlns:svg="http://www.w3.org/2000/svg" class="iconLeft">
 <!---->
 <!---->
 <!---->
 <defs>
  <linearGradient gradientTransform="rotate(25)" id="b638ddaf-13f4-4000-9a39-591df12f1232" x1="0%" x2="100%" y1="0%" y2="0%">
   <stop offset="0%" stop-color="rgb(65, 226, 150)"/>
   <stop offset="100%" stop-color="rgb(0, 196, 238)"/>
  </linearGradient>
 </defs>
 <!---->
 <g class="layer">
  <title>Layer 1</title>
  <g fill="#08403F" id="b3dfbd5e-d803-442d-8d30-8de8f803e037" transform="matrix(4.966887448588033,0,0,4.966887448588033,130.7699848748599,3.5761588666685924)">
   <path d="m5.39,5.83l0,0q0.24,-0.23 0.24,-0.34q0,-0.1 -0.1,-0.18q-0.1,-0.07 -0.26,-0.13q-0.15,-0.05 -0.34,-0.09q-0.19,-0.04 -0.36,-0.06l0,0q-0.36,-0.04 -0.61,-0.04q-0.25,0 -0.57,0.05q-0.33,0.05 -0.6,0.18l0,0q-0.62,0.32 -0.62,0.94q0,0.62 0.23,0.99q0.23,0.38 0.59,0.62q0.37,0.25 0.85,0.41q0.47,0.17 0.97,0.31q0.5,0.14 0.98,0.31q0.47,0.16 0.84,0.41l0,0q0.83,0.57 0.83,1.58l0,0q0,1 -0.84,1.84l0,0q-0.72,0.73 -1.91,1.19l0,0q-1.07,0.43 -2.06,0.43l0,0q-0.61,0 -1.1,-0.15q-0.5,-0.14 -0.7,-0.25l0,0q-0.48,-0.24 -0.48,-0.57l0,0q0,-0.52 1.56,-1.38l0,0q-0.2,0.23 -0.2,0.44q0,0.2 0.13,0.35q0.14,0.15 0.35,0.25q0.21,0.11 0.47,0.18q0.27,0.07 0.53,0.11l0,0q0.47,0.07 0.86,0.07q0.39,0 0.77,-0.07q0.38,-0.07 0.67,-0.25l0,0q0.66,-0.4 0.66,-1.25l0,0q0,-1.33 -1.68,-1.97l0,0q-0.48,-0.18 -0.98,-0.34q-0.5,-0.16 -0.98,-0.33q-0.48,-0.17 -0.85,-0.41l0,0q-0.83,-0.55 -0.83,-1.44l0,0q0,-0.75 0.84,-1.54l0,0q0.72,-0.68 1.82,-1.17l0,0q1.05,-0.48 1.79,-0.48l0,0q0.66,0 1.06,0.13q0.41,0.12 0.51,0.18q0.11,0.07 0.11,0.16q0,0.08 -0.1,0.2q-0.09,0.12 -0.24,0.26q-0.15,0.13 -0.33,0.27q-0.18,0.14 -0.36,0.25l0,0q-0.41,0.27 -0.56,0.33zm8.82,2.35q0.35,0.39 0.55,0.9q0.19,0.51 0.19,1.02q0,0.52 -0.15,1q-0.15,0.49 -0.42,0.94q-0.27,0.46 -0.64,0.85q-0.36,0.39 -0.8,0.69l0,0q-0.93,0.62 -1.88,0.62l0,0q-1.11,0 -1.89,-0.87l0,0q-0.76,-0.83 -0.76,-1.95l0,0q0,-0.96 0.58,-1.93l0,0q0.87,-1.46 2.36,-1.97l0,0q0.48,-0.17 1.02,-0.17q0.53,0 1.01,0.23q0.48,0.24 0.83,0.64zm-3.23,0.04l0,0q-0.69,0 -1,0.67l0,0q-0.25,0.52 -0.25,1.17q0,0.66 0.18,1.22q0.17,0.57 0.51,1.01l0,0q0.76,1 1.96,1l0,0q0.7,0 1.01,-0.7l0,0q0.23,-0.52 0.23,-1.19l0,0q0,-1.32 -0.74,-2.25q-0.73,-0.93 -1.9,-0.93zm9.36,0.57l0,0q0.14,-0.14 0.14,-0.2q0,-0.07 -0.09,-0.13q-0.09,-0.07 -0.24,-0.12q-0.15,-0.05 -0.33,-0.09q-0.17,-0.05 -0.34,-0.07l0,0q-0.35,-0.07 -0.67,-0.07q-0.32,0 -0.65,0.19q-0.33,0.2 -0.53,0.52l0,0q-0.35,0.57 -0.35,1.39q0,0.82 0.18,1.35q0.18,0.53 0.52,0.91l0,0q0.72,0.79 2.03,0.79l0,0q0.83,0 1.56,-0.41l0,0q-0.86,0.93 -2.18,1.25l0,0q-0.41,0.09 -0.92,0.09q-0.51,0 -1,-0.21q-0.49,-0.21 -0.83,-0.59l0,0q-0.71,-0.77 -0.71,-2l0,0q0,-1 0.7,-2.01l0,0q1.01,-1.48 2.68,-2.01l0,0q0.52,-0.17 0.94,-0.17l0,0q1,0 1.5,0.37l0,0q0.05,0.04 0.05,0.11l0,0q0,0.24 -1,0.89l0,0q-0.35,0.22 -0.46,0.22zm2.79,-5.38l1.32,-0.93l0.04,0.78l0,0.36q0,0.32 -0.08,0.4q-0.08,0.07 -0.18,0.14l0,0q-0.38,0.27 -1.1,0.73l0,0q0.03,-0.68 0.03,-0.7q0,-0.03 -0.03,-0.78l0,0zm2.75,9.83l0,0q-0.2,0.17 -0.4,0.34q-0.19,0.17 -0.41,0.31l0,0q-0.49,0.32 -0.94,0.32l0,0q-0.42,0 -0.59,-0.13l0,0q-0.35,-0.26 -0.35,-0.95l0,0l0,-3.25q0,-0.73 -0.27,-0.95l0,0q-0.12,-0.1 -0.27,-0.1q-0.14,0 -0.24,0.01q-0.1,0.02 -0.2,0.04q-0.1,0.02 -0.21,0.04l0,0q0.34,-0.27 0.64,-0.48q0.29,-0.21 0.51,-0.35q0.21,-0.15 0.58,-0.41q0.38,-0.26 0.78,-0.47l0,0l0,4.82q0,0.7 0.09,0.88l0,0q0.19,0.38 0.85,0.38l0,0q0.18,0 0.43,-0.05zm5.13,-3.96l0,2.78l-0.02,0.48q0,0.53 0.3,0.67l0,0q0.12,0.06 0.27,0.06l0,0q0.24,0 0.49,-0.11l0,0q-0.26,0.11 -0.45,0.29q-0.19,0.17 -0.39,0.34l0,0q-0.49,0.42 -0.99,0.42l0,0q-0.5,0 -0.53,-0.58l0,0q-0.02,-0.15 -0.02,-0.3l0,0q-1.23,0.85 -2.25,0.85l0,0q-0.87,0 -1.2,-0.52l0,0q-0.13,-0.19 -0.13,-0.53q0,-0.33 0.21,-0.67q0.2,-0.34 0.52,-0.62l0,0q0.56,-0.52 1.35,-0.85l0,0q0.59,-0.26 1.51,-0.29l0,0l0,-0.3q0,-1.09 -0.2,-1.47q-0.19,-0.39 -0.51,-0.57q-0.31,-0.18 -0.74,-0.18l0,0q-0.72,0 -1.26,0.28l0,0q0.75,-0.62 1.1,-0.82l0,0q0.72,-0.4 1.3,-0.4q0.59,0 0.88,0.17q0.29,0.17 0.46,0.45l0,0q0.3,0.49 0.3,1.42l0,0zm-3.22,3.76q0.17,0.12 0.39,0.17q0.22,0.06 0.65,0.06q0.43,0 0.85,-0.21l0,0l0,-1.43l-1.11,0q-0.59,0 -1.03,0.08l0,0q-0.09,0.29 -0.09,0.56q0,0.27 0.09,0.46q0.09,0.19 0.25,0.31zm8.23,0.19l0,0q-0.23,0.18 -0.43,0.36q-0.21,0.18 -0.43,0.31l0,0q-0.48,0.32 -1,0.32l0,0q-0.75,0 -0.82,-1.04l0,0q-0.01,-0.28 -0.01,-0.55l0,0l0,-7.31q0,-0.94 -0.43,-1.22l0,0q-0.18,-0.12 -0.34,-0.12l0,0q-0.22,0 -0.29,0.01q-0.08,0.01 -0.13,0.02l0,0q0.98,-0.69 1.24,-0.82l0,0q0.34,-0.19 0.71,-0.37q0.36,-0.18 0.56,-0.28l0,0l0,9.43q0,0.28 0,0.52q0.01,0.24 0.08,0.42l0,0q0.17,0.37 0.86,0.37l0,0q0.22,0 0.43,-0.05zm12.97,-1.49l0,0q0.15,-1.82 0.15,-3.45q0,-1.63 -0.13,-3.12l0,0l-1.21,0q0.08,-0.06 0.27,-0.21q0.18,-0.15 0.39,-0.31l0,0q0.52,-0.4 0.66,-0.4l0,0l2.58,0q-0.15,0.04 -0.46,0.32q-0.31,0.28 -0.49,0.42q-0.17,0.14 -0.34,0.18l0,0q0.01,0.16 0.01,0.33q0,0.16 0,0.32l0,0l-0.02,1.53q0,2.51 -0.54,5.32l0,0q-0.01,0.07 -0.03,0.16q-0.01,0.1 -0.03,0.2l0,0q-0.03,0.24 -0.08,0.34q-0.05,0.11 -0.19,0.24q-0.13,0.14 -0.3,0.27l0,0q-0.19,0.16 -0.58,0.43l0,0q-0.08,-0.51 -0.59,-1.14l0,0q-2.44,-3.05 -5.5,-6.45l0,0l0,3.37q0,2 -0.31,2.59l0,0q-0.17,0.31 -0.31,0.47l0,0l2.21,0q-0.09,0.06 -0.27,0.22q-0.19,0.15 -0.4,0.32l0,0q-0.52,0.39 -0.66,0.39l0,0l-2.25,0q0.59,-0.85 0.67,-2.23l0,0q0.03,-0.39 0.03,-2.17q0,-1.78 -0.15,-4.51l0,0l-1.55,0q0.08,-0.06 0.27,-0.21q0.18,-0.15 0.39,-0.31l0,0q0.52,-0.4 0.66,-0.4l0,0l2.58,0q-0.18,0.06 -0.36,0.23q-0.17,0.17 -0.23,0.22l0,0q1.83,1.94 3.12,3.47q1.28,1.53 1.86,2.2q0.57,0.66 1.13,1.37zm8.23,1.08l0,0q-0.94,1.04 -2.33,1.3l0,0q-0.32,0.06 -0.79,0.06q-0.47,0 -0.89,-0.27q-0.42,-0.26 -0.68,-0.68l0,0q-0.51,-0.8 -0.51,-1.96l0,0q0,-0.77 0.59,-1.7l0,0q0.57,-0.92 1.4,-1.53l0,0q0.89,-0.66 1.68,-0.66l0,0q0.41,0 0.69,0.3l0,0q0.26,0.3 0.26,0.67q0,0.38 -0.16,0.7q-0.17,0.32 -0.43,0.62q-0.26,0.3 -0.6,0.57q-0.34,0.28 -0.69,0.52l0,0q-0.5,0.34 -1.26,0.77l0,0q0.22,0.83 0.77,1.28q0.55,0.44 1.43,0.44l0,0q0.74,0 1.52,-0.43zm-2.07,-2.74l0,0q0.19,-0.3 0.19,-0.58q0,-0.28 -0.06,-0.47q-0.07,-0.2 -0.18,-0.35l0,0q-0.27,-0.34 -0.69,-0.34l0,0q-1.04,0 -1.04,2.12l0,0q0,0.37 0.06,0.74l0,0q1.2,-0.33 1.72,-1.12zm3.55,-1.92l-0.89,0l0.89,-0.7l0,-0.97q0.37,-0.26 0.53,-0.4q0.15,-0.14 0.26,-0.2q0.11,-0.06 0.23,-0.13l0,0q0.29,-0.17 0.31,-0.2l0,0l0,1.67l2.19,0q-0.09,0 -0.45,0.32l0,0q-0.69,0.61 -0.88,0.61l0,0l-0.86,0l0,3.66q0,1.26 0.73,1.46l0,0q0.22,0.05 0.41,0.05l0,0q0.31,0 0.53,-0.09q0.22,-0.09 0.36,-0.17l0,0q-0.41,0.64 -1.17,0.97l0,0q-0.39,0.17 -0.83,0.17q-0.45,0 -0.7,-0.16q-0.24,-0.15 -0.39,-0.41l0,0q-0.27,-0.46 -0.27,-1.23l0,0l0,-4.25zm7.81,0.11l0,0q0.05,-0.03 0.16,-0.12q0.1,-0.08 0.24,-0.19q0.13,-0.1 0.27,-0.21q0.15,-0.11 0.28,-0.2l0,0q0.29,-0.22 0.36,-0.22q0.06,0 0.16,0.16q0.09,0.15 0.18,0.34q0.1,0.2 0.17,0.38q0.07,0.18 0.28,0.71l0,0q0.55,1.37 1.1,3.6l0,0q0.8,-1.46 0.98,-2.07q0.18,-0.61 0.18,-0.85q0,-0.24 -0.03,-0.44q-0.03,-0.2 -0.1,-0.38l0,0q-0.18,-0.43 -0.52,-0.43l0,0q-0.17,0 -0.32,0.09l0,0q0.18,-0.09 0.37,-0.26q0.2,-0.18 0.41,-0.34l0,0q0.51,-0.41 0.76,-0.41q0.24,0 0.37,0.1q0.14,0.09 0.23,0.24l0,0q0.16,0.28 0.16,0.73q0,0.46 -0.18,1.05q-0.18,0.58 -0.46,1.16l0,0q-0.34,0.71 -0.83,1.49q-0.48,0.77 -0.58,0.94q-0.1,0.16 -0.17,0.26q-0.07,0.09 -0.16,0.16q-0.09,0.07 -0.22,0.16q-0.13,0.09 -0.28,0.19q-0.15,0.1 -0.29,0.2q-0.14,0.09 -0.25,0.16q-0.11,0.08 -0.17,0.11l0,0q-0.55,-2.34 -1,-3.63l0,0q-0.28,0.71 -0.63,1.41q-0.36,0.71 -0.45,0.91q-0.08,0.21 -0.15,0.31q-0.07,0.1 -0.16,0.17q-0.09,0.07 -0.22,0.16q-0.13,0.09 -0.28,0.2q-0.16,0.1 -0.3,0.2l0,0q-0.29,0.18 -0.42,0.27l0,0q-0.04,-0.2 -0.12,-0.57q-0.08,-0.36 -0.18,-0.83q-0.11,-0.46 -0.25,-0.99q-0.13,-0.53 -0.29,-1.04q-0.17,-0.52 -0.35,-0.99q-0.19,-0.48 -0.4,-0.84l0,0q-0.45,-0.79 -0.9,-0.79l0,0q-0.21,0 -0.42,0.13l0,0q0.63,-0.65 1.35,-0.96l0,0q0.26,-0.11 0.42,-0.11l0,0q0.24,0 0.41,0.14q0.17,0.14 0.35,0.47q0.18,0.33 0.36,0.76q0.17,0.44 0.34,0.94q0.16,0.49 0.3,0.96l0,0q0.19,0.67 0.41,1.51l0,0q0.13,-0.3 0.28,-0.66q0.15,-0.35 0.28,-0.72l0,0q0.3,-0.87 0.3,-1.49q0,-0.63 -0.38,-1.03zm12.34,-0.09q0.34,0.39 0.54,0.9q0.19,0.51 0.19,1.02q0,0.52 -0.15,1q-0.15,0.49 -0.42,0.94q-0.27,0.46 -0.63,0.85q-0.37,0.39 -0.81,0.69l0,0q-0.93,0.62 -1.88,0.62l0,0q-1.11,0 -1.89,-0.87l0,0q-0.76,-0.83 -0.76,-1.95l0,0q0,-0.96 0.58,-1.93l0,0q0.87,-1.46 2.37,-1.97l0,0q0.48,-0.17 1.01,-0.17q0.53,0 1.02,0.23q0.48,0.24 0.83,0.64zm-3.24,0.04l0,0q-0.68,0 -1,0.67l0,0q-0.24,0.52 -0.24,1.17q0,0.66 0.17,1.22q0.18,0.57 0.52,1.01l0,0q0.76,1 1.95,1l0,0q0.7,0 1.02,-0.7l0,0q0.22,-0.52 0.22,-1.19l0,0q0,-1.32 -0.73,-2.25q-0.74,-0.93 -1.91,-0.93zm11.1,-0.78l0,0q-0.83,1.21 -2.01,1.21l0,0q-0.19,0 -0.49,-0.15l0,0q-0.57,-0.28 -0.77,-0.28q-0.21,0 -0.33,0.13q-0.12,0.13 -0.2,0.36l0,0q-0.19,0.5 -0.19,1.31l0,0l0,2.62q0,0.44 0.27,0.59l0,0q0.09,0.07 0.24,0.07q0.14,0 0.3,-0.07l0,0q-0.14,0.12 -0.27,0.29q-0.13,0.17 -0.29,0.32l0,0q-0.39,0.38 -0.93,0.38l0,0q-0.27,0 -0.46,-0.18q-0.19,-0.17 -0.19,-0.42l0,0l0,-3.94q0,-0.24 0.01,-0.48q0,-0.24 -0.05,-0.44l0,0q-0.13,-0.43 -0.75,-0.43l0,0q-0.29,0 -0.59,0.11l0,0q0.18,-0.06 0.46,-0.32l0,0q0.55,-0.49 0.76,-0.57l0,0q0.44,-0.16 0.71,-0.16q0.27,0 0.42,0.08q0.14,0.08 0.22,0.21l0,0q0.14,0.23 0.14,0.7l0,0q0.2,-0.15 0.44,-0.34q0.23,-0.19 0.48,-0.36l0,0q0.61,-0.4 1.06,-0.4l0,0q0.27,0 0.56,0.15q0.3,0.15 0.44,0.22q0.15,0.07 0.27,0.07l0,0q0.27,0 0.74,-0.28zm0.47,5.8l0,-8.3q0,-1.02 -0.6,-1.02l0,0q-0.18,0 -0.59,0.1l0,0q0.28,-0.21 0.59,-0.45q0.31,-0.23 0.63,-0.47l0,0q0.7,-0.48 1.3,-0.8l0,0l-0.01,6.28q0.77,-0.68 1.71,-1.01l0,0q0.31,-0.11 0.55,-0.11q0.24,0 0.43,0.09q0.19,0.08 0.32,0.22l0,0q0.3,0.3 0.3,0.69q0,0.38 -0.19,0.69q-0.2,0.31 -0.48,0.58l0,0q-0.39,0.4 -1.17,0.9l0,0q0.1,0.1 0.31,0.33q0.21,0.24 0.47,0.52q0.26,0.29 0.56,0.6q0.3,0.31 0.57,0.56l0,0q0.61,0.58 0.8,0.58l0,0q0.48,0 0.95,-0.27l0,0q-0.59,0.81 -1.45,1.14l0,0q-0.28,0.11 -0.5,0.11q-0.22,0 -0.34,-0.05q-0.13,-0.05 -0.24,-0.12l0,0q-0.23,-0.15 -0.61,-0.54l0,0q-0.8,-0.8 -1.99,-2.08l0,0l0,0.7q0,0.16 0,0.36q0,0.2 0.04,0.39l0,0q0.09,0.44 0.48,0.44l0,0q0.14,0 0.3,-0.07l0,0q-0.15,0.12 -0.33,0.29q-0.19,0.17 -0.4,0.33l0,0q-0.51,0.38 -0.84,0.38l0,0q-0.57,0 -0.57,-0.99l0,0zm2.29,-4.85l0,0q-0.97,0 -0.97,2.47l0,0l0,0.36q1.26,-0.5 1.78,-1.25l0,0q0.2,-0.29 0.2,-0.57q0,-0.27 -0.08,-0.45q-0.08,-0.17 -0.22,-0.3l0,0q-0.3,-0.26 -0.71,-0.26z" id="svg_1"/>
  </g>
  <g fill="url(#b638ddaf-13f4-4000-9a39-591df12f1232)" id="9f8d9eac-7358-4027-b1a7-6343eb976a20" transform="matrix(1.2804639180796948,0,0,1.2804639180796948,-6.994625916992419,-18.16684504014485)">
   <path d="m39.36,52.14c-0.99,4.22 -2.86,7.88 -7.45,6.81c-4.04,-0.95 -4.56,-5.19 -3.57,-9.4c0.99,-4.21 5.13,-6.07 6.96,-5.64c1.92,0.45 5.05,4.02 4.06,8.23zm19.1,0c0.99,4.22 2.86,7.88 7.46,6.81c4.04,-0.95 4.56,-5.19 3.57,-9.4c-0.99,-4.21 -5.13,-6.07 -6.97,-5.64c-1.92,0.45 -5.05,4.02 -4.06,8.23zm-2.64,7.28c-0.11,-0.06 -2.73,-1.52 -5.9,-1.52c-3.17,0 -6.19,1.45 -6.32,1.52a0.18,0.18 0 0 0 -0.05,0.29a58.46,58.46 0 0 0 2.51,2.42c2.72,2.46 3.42,2.46 3.65,2.46s0.92,0 3.64,-2.46c1.33,-1.2 2.5,-2.41 2.51,-2.42a0.18,0.18 0 0 0 0.05,-0.16a0.18,0.18 0 0 0 -0.09,-0.13z" id="svg_2"/>
   <path d="m91.47,21.02c-4.92,-6.59 -15.44,-7.05 -23.55,-1.07a34.93,34.93 0 0 0 -18.21,-5.09a34.93,34.93 0 0 0 -17.89,4.9c-8.08,-5.78 -18.43,-5.26 -23.29,1.26c-4.93,6.61 -2.35,16.89 5.78,22.95c0.23,0.17 0.46,0.34 0.69,0.5a35.17,35.17 0 0 0 -0.44,5.53c0,19.38 15.77,35.14 35.15,35.14s35.14,-15.76 35.14,-35.14c0,-1.76 -0.13,-3.49 -0.38,-5.18a22.12,22.12 0 0 0 1.22,-0.85c8.13,-6.06 10.71,-16.34 5.78,-22.95zm-76.14,5.43c2.37,-3.17 6.79,-4.1 11.03,-2.7a35.26,35.26 0 0 0 -9.89,14.82c-3.07,-3.79 -3.68,-8.72 -1.14,-12.12zm34.38,55.22c-17.47,0 -31.67,-14.21 -31.67,-31.67c0,-17.46 14.2,-31.67 31.67,-31.67c17.46,0 31.67,14.21 31.67,31.67c0,17.46 -14.21,31.67 -31.67,31.67zm33.4,-42.61a35.24,35.24 0 0 0 -9.89,-15.16c4.36,-1.61 9,-0.73 11.45,2.55c2.65,3.55 1.87,8.77 -1.57,12.61l0.01,0z" id="svg_3"/>
   <path d="m59.52,64.76a0.73,0.73 0 0 0 -0.82,0.63c0,0.01 -0.12,0.91 -0.71,1.78c-0.74,1.12 -1.9,1.68 -3.42,1.68c-3.65,0 -4.12,-3.32 -4.14,-3.46c0,-0.01 -0.01,-0.03 -0.01,-0.05c0,-0.02 -0.01,-0.05 -0.02,-0.07c0,-0.03 -0.01,-0.05 -0.02,-0.07c-0.01,-0.02 -0.02,-0.04 -0.03,-0.06a0.68,0.68 0 0 0 -0.05,-0.07l-0.03,-0.05a1.3,1.3 0 0 0 -0.06,-0.06l-0.03,-0.03a0.96,0.96 0 0 0 -0.22,-0.13l-0.02,-0.01a0.71,0.71 0 0 0 -0.13,-0.03l-0.01,0l0,0a0.6,0.6 0 0 0 -0.12,0l-0.04,0c0,0 -0.01,0 -0.02,0c-0.02,0 -0.05,0.01 -0.07,0.01c-0.02,0.01 -0.03,0.01 -0.05,0.02a0.55,0.55 0 0 0 -0.09,0.03c-0.01,0 -0.03,0.01 -0.04,0.02a0.83,0.83 0 0 0 -0.22,0.18c-0.02,0.02 -0.03,0.04 -0.05,0.06a0.61,0.61 0 0 0 -0.03,0.05c-0.01,0.03 -0.02,0.05 -0.03,0.08c-0.01,0.02 -0.02,0.03 -0.02,0.05a0.64,0.64 0 0 0 -0.02,0.09c-0.01,0.01 -0.01,0.03 -0.02,0.04c0,0.01 -0.12,0.92 -0.7,1.78c-0.75,1.12 -1.9,1.68 -3.43,1.68c-3.64,0 -4.12,-3.32 -4.13,-3.45a0.73,0.73 0 0 0 -1.45,0.17c0.19,1.64 1.62,4.74 5.58,4.74c2.57,0 4.07,-1.3 4.86,-2.66c0.79,1.36 2.29,2.66 4.86,2.66c3.96,0 5.39,-3.1 5.58,-4.74a0.73,0.73 0 0 0 -0.63,-0.81z" id="svg_4"/>
  </g>
 </g>
</svg>