<?xml version="1.0"?>
<svg width="120" height="90" xmlns="http://www.w3.org/2000/svg" xmlns:svg="http://www.w3.org/2000/svg" class="iconLeft">
 <!---->
 <!---->
 <!---->
 <defs>
  <linearGradient gradientTransform="rotate(25)" id="b638ddaf-13f4-4000-9a39-591df12f1232" x1="0%" x2="100%" y1="0%" y2="0%">
   <stop offset="0%" stop-color="rgb(65, 226, 150)"/>
   <stop offset="100%" stop-color="rgb(0, 196, 238)"/>
  </linearGradient>
 </defs>
 <!---->
 <g class="layer">
  <title>Layer 1</title>
  <g fill="url(#b638ddaf-13f4-4000-9a39-591df12f1232)" id="9f8d9eac-7358-4027-b1a7-6343eb976a20" transform="matrix(1.28046 0 0 1.28046 -6.99463 -18.1668)">
   <path d="m41.7,52.14c-0.99,4.22 -2.86,7.88 -7.45,6.81c-4.04,-0.95 -4.56,-5.19 -3.57,-9.4c0.99,-4.21 5.13,-6.07 6.96,-5.64c1.92,0.45 5.05,4.02 4.06,8.23zm19.1,0c0.99,4.22 2.86,7.88 7.46,6.81c4.04,-0.95 4.56,-5.19 3.57,-9.4c-0.99,-4.21 -5.13,-6.07 -6.97,-5.64c-1.92,0.45 -5.05,4.02 -4.06,8.23zm-2.64,7.28c-0.11,-0.06 -2.73,-1.52 -5.9,-1.52c-3.17,0 -6.19,1.45 -6.32,1.52a0.18,0.18 0 0 0 -0.05,0.29a58.46,58.46 0 0 0 2.51,2.42c2.72,2.46 3.42,2.46 3.65,2.46s0.92,0 3.64,-2.46c1.33,-1.2 2.5,-2.41 2.51,-2.42a0.18,0.18 0 0 0 0.05,-0.16a0.18,0.18 0 0 0 -0.09,-0.13z" id="svg_2"/>
   <path d="m93.81,21.02c-4.92,-6.59 -15.44,-7.05 -23.55,-1.07a34.93,34.93 0 0 0 -18.21,-5.09a34.93,34.93 0 0 0 -17.89,4.9c-8.08,-5.78 -18.43,-5.26 -23.29,1.26c-4.93,6.61 -2.35,16.89 5.78,22.95c0.23,0.17 0.46,0.34 0.69,0.5a35.17,35.17 0 0 0 -0.44,5.53c0,19.38 15.77,35.14 35.15,35.14s35.14,-15.76 35.14,-35.14c0,-1.76 -0.13,-3.49 -0.38,-5.18a22.12,22.12 0 0 0 1.22,-0.85c8.13,-6.06 10.71,-16.34 5.78,-22.95zm-76.14,5.43c2.37,-3.17 6.79,-4.1 11.03,-2.7a35.26,35.26 0 0 0 -9.89,14.82c-3.07,-3.79 -3.68,-8.72 -1.14,-12.12zm34.38,55.22c-17.47,0 -31.67,-14.21 -31.67,-31.67c0,-17.46 14.2,-31.67 31.67,-31.67c17.46,0 31.67,14.21 31.67,31.67c0,17.46 -14.21,31.67 -31.67,31.67zm33.4,-42.61a35.24,35.24 0 0 0 -9.89,-15.16c4.36,-1.61 9,-0.73 11.45,2.55c2.65,3.55 1.87,8.77 -1.57,12.61l0.01,0z" id="svg_3"/>
   <path d="m61.86,64.76a0.73,0.73 0 0 0 -0.82,0.63c0,0.01 -0.12,0.91 -0.71,1.78c-0.74,1.12 -1.9,1.68 -3.42,1.68c-3.65,0 -4.12,-3.32 -4.14,-3.46c0,-0.01 -0.01,-0.03 -0.01,-0.05c0,-0.02 -0.01,-0.05 -0.02,-0.07c0,-0.03 -0.01,-0.05 -0.02,-0.07c-0.01,-0.02 -0.02,-0.04 -0.03,-0.06a0.68,0.68 0 0 0 -0.05,-0.07l-0.03,-0.05a1.3,1.3 0 0 0 -0.06,-0.06l-0.03,-0.03a0.96,0.96 0 0 0 -0.22,-0.13l-0.02,-0.01a0.71,0.71 0 0 0 -0.13,-0.03l-0.01,0l0,0a0.6,0.6 0 0 0 -0.12,0l-0.04,0c0,0 -0.01,0 -0.02,0c-0.02,0 -0.05,0.01 -0.07,0.01c-0.02,0.01 -0.03,0.01 -0.05,0.02a0.55,0.55 0 0 0 -0.09,0.03c-0.01,0 -0.03,0.01 -0.04,0.02a0.83,0.83 0 0 0 -0.22,0.18c-0.02,0.02 -0.03,0.04 -0.05,0.06a0.61,0.61 0 0 0 -0.03,0.05c-0.01,0.03 -0.02,0.05 -0.03,0.08c-0.01,0.02 -0.02,0.03 -0.02,0.05a0.64,0.64 0 0 0 -0.02,0.09c-0.01,0.01 -0.01,0.03 -0.02,0.04c0,0.01 -0.12,0.92 -0.7,1.78c-0.75,1.12 -1.9,1.68 -3.43,1.68c-3.64,0 -4.12,-3.32 -4.13,-3.45a0.73,0.73 0 0 0 -1.45,0.17c0.19,1.64 1.62,4.74 5.58,4.74c2.57,0 4.07,-1.3 4.86,-2.66c0.79,1.36 2.29,2.66 4.86,2.66c3.96,0 5.39,-3.1 5.58,-4.74a0.73,0.73 0 0 0 -0.63,-0.81z" id="svg_4"/>
  </g>
 </g>
</svg>